# xmcd CD database file
#
# Track frame offsets:
#	150
#	14295
#	32097
#	45064
#	58184
#	73274
#	86560
#	99576
#	112621
#	129426
#	143186
#	158256
#	172213
#	183477
#
# Disc length: 2625 seconds
#
# Revision: 1
# Processed by: cddbd v1.4PL0 Copyright (c) Steve Scherf et al.
# Submitted via: CDValet v3.40 - Copyright (c) 1996 - 1998 Greg Leichner
#
DISCID=b00a3f0e
DTITLE=Various Artist - Hillbilly Down
DYEAR=1900
DGENRE=
TTITLE0=She Loves Anything That Swings
TTITLE1=Gypsies In My Backyard
TTITLE2=Wynn Stewart
TTITLE3=Hillbilly Down
TTITLE4=Why Couldn't Something Like That Ever Happen To Me
TTITLE5=Fine Way To Treat Me
TTITLE6=Truth Is You Lied
TTITLE7=Pencil Me In
TTITLE8=The Man You Wanted Me To Be
TTITLE9=The Pride And Joy Of John And Lisa
TTITLE10=Fairy Tales And Wedding Bells
TTITLE11=Blackboard In Bakersfield And The Palomino
TTITLE12=I'm On My Way To Heaven
TTITLE13=Daddy
EXTD=
EXTT0=
EXTT1=
EXTT2=
EXTT3=
EXTT4=
EXTT5=
EXTT6=
EXTT7=
EXTT8=
EXTT9=
EXTT10=
EXTT11=
EXTT12=
EXTT13=
PLAYORDER=
